<?xml version="1.0" standalone="no"?>
<!DOCTYPE svg PUBLIC "-//W3C//DTD SVG 1.1//EN" "http://www.w3.org/Graphics/SVG/1.1/DTD/svg11.dtd">
<svg t="1729946257252" class="icon" viewBox="0 0 1024 1024" version="1.1"
    xmlns="http://www.w3.org/2000/svg" p-id="5378" xmlns:xlink="http://www.w3.org/1999/xlink"
    width="256" height="256">
    <path
        d="M874.666667 320H576c-12.8 0-21.333333-8.533333-21.333333-21.333333s8.533333-21.333333 21.333333-21.333334h298.666667c12.8 0 21.333333 8.533333 21.333333 21.333334s-8.533333 21.333333-21.333333 21.333333zM448 682.666667H149.333333c-12.8 0-21.333333-8.533333-21.333333-21.333334s8.533333-21.333333 21.333333-21.333333h298.666667c12.8 0 21.333333 8.533333 21.333333 21.333333s-8.533333 21.333333-21.333333 21.333334zM448 810.666667H149.333333c-12.8 0-21.333333-8.533333-21.333333-21.333334s8.533333-21.333333 21.333333-21.333333h298.666667c12.8 0 21.333333 8.533333 21.333333 21.333333s-8.533333 21.333333-21.333333 21.333334zM448 320H149.333333c-12.8 0-21.333333-8.533333-21.333333-21.333333s8.533333-21.333333 21.333333-21.333334h298.666667c12.8 0 21.333333 8.533333 21.333333 21.333334s-8.533333 21.333333-21.333333 21.333333z"
        fill="#333333" p-id="5379"></path>
    <path
        d="M298.666667 469.333333c-12.8 0-21.333333-8.533333-21.333334-21.333333V149.333333c0-12.8 8.533333-21.333333 21.333334-21.333333s21.333333 8.533333 21.333333 21.333333v298.666667c0 12.8-8.533333 21.333333-21.333333 21.333333z"
        fill="#333333" p-id="5380"></path>
    <path
        d="M832 853.333333c-6.4 0-10.666667-2.133333-14.933333-6.4l-213.333334-213.333333c-8.533333-8.533333-8.533333-21.333333 0-29.866667s21.333333-8.533333 29.866667 0l213.333333 213.333334c8.533333 8.533333 8.533333 21.333333 0 29.866666-4.266667 4.266667-8.533333 6.4-14.933333 6.4z"
        fill="#333333" p-id="5381"></path>
    <path
        d="M618.666667 853.333333c-6.4 0-10.666667-2.133333-14.933334-6.4-8.533333-8.533333-8.533333-21.333333 0-29.866666l213.333334-213.333334c8.533333-8.533333 21.333333-8.533333 29.866666 0s8.533333 21.333333 0 29.866667l-213.333333 213.333333c-4.266667 4.266667-8.533333 6.4-14.933333 6.4z"
        fill="#333333" p-id="5382"></path>
</svg>